<?xml version="1.0" encoding="utf-8" ?>
<svg baseProfile="tiny" height="1024" version="1.2" width="1024" xmlns="http://www.w3.org/2000/svg" xmlns:ev="http://www.w3.org/2001/xml-events" xmlns:xlink="http://www.w3.org/1999/xlink"><defs /><path d="M 317,622 L 317,625 L 318,626 L 318,636 L 319,637 L 319,647 L 320,648 L 320,657 L 321,658 L 321,667 L 322,668 L 322,678 L 323,679 L 323,693 L 324,694 L 324,726 L 323,727 L 323,739 L 322,740 L 322,748 L 321,749 L 321,756 L 320,757 L 320,763 L 319,764 L 319,769 L 318,770 L 318,775 L 317,776 L 317,780 L 316,781 L 316,784 L 315,785 L 315,787 L 316,787 L 317,788 L 318,788 L 319,789 L 320,789 L 322,791 L 323,791 L 324,792 L 325,792 L 326,793 L 327,793 L 329,795 L 330,795 L 332,797 L 333,797 L 335,799 L 336,799 L 338,801 L 339,801 L 341,803 L 342,803 L 345,806 L 346,806 L 350,810 L 351,810 L 356,815 L 357,815 L 362,820 L 363,820 L 371,828 L 372,828 L 407,863 L 407,864 L 415,872 L 415,873 L 420,878 L 420,879 L 424,883 L 424,884 L 428,888 L 428,889 L 431,892 L 431,893 L 434,896 L 434,897 L 437,900 L 437,901 L 439,903 L 439,904 L 441,906 L 441,907 L 442,908 L 445,908 L 446,907 L 449,907 L 450,906 L 454,906 L 455,905 L 460,905 L 461,904 L 466,904 L 467,903 L 473,903 L 474,902 L 480,902 L 481,901 L 489,901 L 490,900 L 503,900 L 504,899 L 521,899 L 522,900 L 534,900 L 535,901 L 544,901 L 545,902 L 551,902 L 552,903 L 558,903 L 559,904 L 563,904 L 564,905 L 568,905 L 569,906 L 573,906 L 574,907 L 578,907 L 579,908 L 581,908 L 582,907 L 582,906 L 585,903 L 585,902 L 587,900 L 587,899 L 591,895 L 591,894 L 594,891 L 594,890 L 598,886 L 598,885 L 602,881 L 602,880 L 608,874 L 608,873 L 615,866 L 615,865 L 647,833 L 648,833 L 656,825 L 657,825 L 663,819 L 664,819 L 669,814 L 670,814 L 675,809 L 676,809 L 680,805 L 681,805 L 684,802 L 685,802 L 688,799 L 689,799 L 691,797 L 692,797 L 694,795 L 695,795 L 697,793 L 698,793 L 700,791 L 701,791 L 702,790 L 703,790 L 704,789 L 705,789 L 707,787 L 708,787 L 708,786 L 707,785 L 707,781 L 706,780 L 706,776 L 705,775 L 705,771 L 704,770 L 704,765 L 703,764 L 703,758 L 702,757 L 702,751 L 701,750 L 701,742 L 700,741 L 700,728 L 699,727 L 699,694 L 700,693 L 700,682 L 701,681 L 701,672 L 702,671 L 702,662 L 703,661 L 703,652 L 704,651 L 704,642 L 705,641 L 705,631 L 706,630 L 706,623 L 705,623 L 703,625 L 702,625 L 701,626 L 700,626 L 696,630 L 695,630 L 690,635 L 690,636 L 687,639 L 687,640 L 685,642 L 685,643 L 684,644 L 684,645 L 683,646 L 683,648 L 682,649 L 682,650 L 681,651 L 681,653 L 680,654 L 680,656 L 679,657 L 679,659 L 678,660 L 678,663 L 677,664 L 677,667 L 676,668 L 676,671 L 675,672 L 675,676 L 674,677 L 674,682 L 673,683 L 673,689 L 672,690 L 672,697 L 671,698 L 671,705 L 670,706 L 670,713 L 669,714 L 669,722 L 668,723 L 668,729 L 667,730 L 667,736 L 666,737 L 666,744 L 665,745 L 665,746 L 663,748 L 663,749 L 643,769 L 642,769 L 640,771 L 639,771 L 638,770 L 639,769 L 639,746 L 638,745 L 639,744 L 638,743 L 638,730 L 637,731 L 636,731 L 635,732 L 633,732 L 632,733 L 630,733 L 629,734 L 626,734 L 625,735 L 623,735 L 622,736 L 620,736 L 619,737 L 617,737 L 617,771 L 616,772 L 616,776 L 614,778 L 614,779 L 613,780 L 612,780 L 610,782 L 603,782 L 596,775 L 596,741 L 595,742 L 591,742 L 590,743 L 584,743 L 583,744 L 576,744 L 575,745 L 566,745 L 565,746 L 555,746 L 555,769 L 556,770 L 556,781 L 555,782 L 555,785 L 554,786 L 554,787 L 548,793 L 547,793 L 546,794 L 543,794 L 542,793 L 541,793 L 540,792 L 539,792 L 536,789 L 536,788 L 535,787 L 535,784 L 534,783 L 534,748 L 490,748 L 490,782 L 489,783 L 489,787 L 488,788 L 488,789 L 485,792 L 484,792 L 483,793 L 482,793 L 481,794 L 479,794 L 478,793 L 476,793 L 475,792 L 474,792 L 471,789 L 471,788 L 469,786 L 469,785 L 468,784 L 468,746 L 457,746 L 456,745 L 448,745 L 447,744 L 440,744 L 439,743 L 433,743 L 432,742 L 428,742 L 428,770 L 427,771 L 427,774 L 426,775 L 426,776 L 421,781 L 420,781 L 419,782 L 413,782 L 409,778 L 409,777 L 408,776 L 408,774 L 407,773 L 407,768 L 406,767 L 406,759 L 407,758 L 407,737 L 405,737 L 404,736 L 401,736 L 400,735 L 398,735 L 397,734 L 394,734 L 393,733 L 391,733 L 390,732 L 388,732 L 387,731 L 386,731 L 385,730 L 385,770 L 384,771 L 382,769 L 381,769 L 359,747 L 359,746 L 358,745 L 358,741 L 357,740 L 357,734 L 356,733 L 356,726 L 355,725 L 355,719 L 354,718 L 354,711 L 353,710 L 353,703 L 352,702 L 352,695 L 351,694 L 351,688 L 350,687 L 350,681 L 349,680 L 349,675 L 348,674 L 348,671 L 347,670 L 347,666 L 346,665 L 346,663 L 345,662 L 345,659 L 344,658 L 344,656 L 343,655 L 343,653 L 342,652 L 342,650 L 341,649 L 341,648 L 340,647 L 340,645 L 338,643 L 338,642 L 337,641 L 337,640 L 335,638 L 335,637 L 326,628 L 325,628 L 323,626 L 322,626 L 320,624 L 319,624 Z" fill="#00FF00" /><path d="M 488,112 L 487,113 L 471,113 L 470,114 L 462,114 L 461,115 L 454,115 L 453,116 L 448,116 L 447,117 L 442,117 L 441,118 L 436,118 L 435,119 L 431,119 L 430,120 L 426,120 L 425,121 L 422,121 L 421,122 L 418,122 L 417,123 L 414,123 L 413,124 L 410,124 L 409,125 L 407,125 L 406,126 L 403,126 L 402,127 L 399,127 L 398,128 L 396,128 L 395,129 L 393,129 L 392,130 L 390,130 L 389,131 L 387,131 L 386,132 L 384,132 L 383,133 L 381,133 L 380,134 L 379,134 L 378,135 L 376,135 L 375,136 L 374,136 L 373,137 L 372,137 L 371,138 L 370,138 L 369,139 L 367,139 L 366,140 L 365,140 L 364,141 L 363,141 L 362,142 L 361,142 L 360,143 L 359,143 L 358,144 L 357,144 L 356,145 L 355,145 L 354,146 L 353,146 L 352,147 L 351,147 L 350,148 L 349,148 L 348,149 L 347,149 L 346,150 L 345,150 L 344,151 L 343,151 L 341,153 L 340,153 L 339,154 L 338,154 L 337,155 L 336,155 L 334,157 L 333,157 L 332,158 L 331,158 L 330,159 L 329,159 L 327,161 L 326,161 L 324,163 L 323,163 L 321,165 L 320,165 L 318,167 L 317,167 L 314,170 L 313,170 L 310,173 L 309,173 L 305,177 L 304,177 L 295,186 L 294,186 L 287,193 L 287,194 L 278,203 L 278,204 L 274,208 L 274,209 L 271,212 L 271,213 L 269,215 L 269,216 L 267,218 L 267,219 L 264,222 L 264,223 L 263,224 L 263,225 L 261,227 L 261,228 L 259,230 L 259,231 L 258,232 L 258,233 L 257,234 L 257,235 L 256,236 L 256,237 L 255,238 L 255,239 L 254,240 L 254,241 L 253,242 L 253,243 L 252,244 L 252,245 L 251,246 L 251,247 L 250,248 L 250,249 L 249,250 L 249,251 L 248,252 L 248,254 L 247,255 L 247,257 L 246,258 L 246,259 L 245,260 L 245,262 L 244,263 L 244,265 L 243,266 L 243,268 L 242,269 L 242,272 L 241,273 L 241,275 L 240,276 L 240,279 L 239,280 L 239,284 L 238,285 L 238,289 L 237,290 L 237,295 L 236,296 L 236,302 L 235,303 L 235,313 L 234,314 L 234,351 L 235,352 L 235,361 L 236,362 L 236,370 L 237,371 L 237,376 L 238,377 L 238,381 L 239,382 L 239,385 L 240,386 L 240,390 L 241,391 L 241,393 L 242,394 L 242,397 L 243,398 L 243,400 L 244,401 L 244,403 L 245,404 L 245,407 L 246,408 L 246,410 L 247,411 L 247,413 L 248,414 L 248,417 L 249,418 L 249,420 L 250,421 L 250,423 L 251,424 L 251,426 L 252,427 L 252,430 L 253,431 L 253,433 L 254,434 L 254,436 L 255,437 L 255,440 L 256,441 L 256,446 L 257,447 L 257,465 L 256,466 L 256,469 L 255,470 L 255,472 L 254,473 L 254,474 L 253,475 L 253,476 L 252,477 L 252,478 L 251,479 L 251,480 L 249,482 L 249,483 L 247,485 L 247,486 L 241,492 L 241,493 L 229,505 L 229,506 L 220,515 L 220,518 L 221,519 L 221,521 L 222,522 L 222,524 L 223,525 L 223,527 L 224,528 L 224,530 L 225,531 L 225,533 L 226,534 L 226,536 L 227,537 L 227,539 L 228,540 L 228,541 L 229,542 L 229,544 L 230,545 L 230,546 L 231,547 L 231,549 L 232,550 L 232,551 L 233,552 L 233,554 L 234,555 L 234,556 L 235,557 L 235,558 L 236,559 L 236,560 L 237,561 L 237,562 L 238,563 L 238,565 L 239,566 L 239,567 L 241,569 L 241,570 L 242,571 L 242,572 L 243,573 L 243,574 L 244,575 L 244,576 L 246,578 L 246,579 L 247,580 L 247,581 L 249,583 L 249,584 L 252,587 L 252,588 L 261,597 L 262,597 L 263,598 L 264,598 L 265,599 L 268,599 L 269,600 L 278,600 L 279,599 L 283,599 L 284,598 L 286,598 L 287,597 L 289,597 L 290,596 L 292,596 L 293,595 L 295,595 L 296,594 L 298,594 L 299,593 L 302,593 L 303,592 L 305,592 L 306,591 L 310,591 L 311,590 L 316,590 L 317,589 L 333,589 L 334,590 L 338,590 L 339,591 L 341,591 L 342,592 L 344,592 L 345,593 L 346,593 L 347,594 L 348,594 L 350,596 L 351,596 L 352,597 L 353,597 L 364,608 L 364,609 L 367,612 L 367,613 L 368,614 L 368,615 L 369,616 L 369,617 L 370,618 L 370,619 L 371,620 L 371,621 L 372,622 L 372,624 L 373,625 L 373,626 L 374,627 L 374,629 L 375,630 L 375,633 L 376,634 L 376,637 L 377,638 L 377,643 L 378,644 L 378,651 L 379,652 L 379,660 L 380,661 L 380,671 L 381,672 L 381,682 L 382,683 L 382,692 L 383,693 L 383,703 L 384,704 L 385,704 L 386,705 L 388,705 L 389,706 L 391,706 L 392,707 L 394,707 L 395,708 L 397,708 L 398,709 L 401,709 L 402,710 L 405,710 L 406,711 L 407,711 L 407,706 L 406,705 L 407,704 L 406,703 L 406,700 L 407,699 L 406,698 L 406,696 L 407,695 L 407,675 L 410,672 L 410,671 L 411,670 L 412,670 L 414,668 L 415,668 L 416,667 L 420,667 L 421,668 L 422,668 L 428,674 L 428,716 L 433,716 L 434,717 L 439,717 L 440,718 L 448,718 L 449,719 L 458,719 L 459,720 L 469,720 L 468,719 L 469,718 L 469,676 L 472,673 L 472,672 L 473,671 L 474,671 L 476,669 L 480,669 L 481,670 L 482,670 L 488,676 L 488,678 L 489,679 L 489,703 L 490,704 L 490,722 L 534,722 L 534,721 L 533,720 L 534,719 L 534,678 L 535,677 L 535,676 L 536,675 L 536,674 L 539,671 L 540,671 L 542,669 L 547,669 L 554,676 L 554,682 L 555,683 L 555,720 L 565,720 L 566,719 L 575,719 L 576,718 L 584,718 L 585,717 L 591,717 L 592,716 L 597,716 L 597,676 L 598,675 L 598,674 L 604,668 L 609,668 L 616,675 L 616,693 L 617,694 L 617,711 L 619,711 L 620,710 L 623,710 L 624,709 L 626,709 L 627,708 L 629,708 L 630,707 L 632,707 L 633,706 L 635,706 L 636,705 L 637,705 L 638,704 L 640,704 L 640,694 L 641,693 L 641,680 L 642,679 L 642,668 L 643,667 L 643,658 L 644,657 L 644,649 L 645,648 L 645,643 L 646,642 L 646,638 L 647,637 L 647,634 L 648,633 L 648,630 L 649,629 L 649,627 L 650,626 L 650,624 L 651,623 L 651,622 L 652,621 L 652,620 L 653,619 L 653,618 L 654,617 L 654,616 L 656,614 L 656,613 L 658,611 L 658,610 L 661,607 L 661,606 L 667,600 L 668,600 L 671,597 L 672,597 L 674,595 L 675,595 L 676,594 L 677,594 L 678,593 L 680,593 L 681,592 L 682,592 L 683,591 L 685,591 L 686,590 L 689,590 L 690,589 L 710,589 L 711,590 L 715,590 L 716,591 L 719,591 L 720,592 L 722,592 L 723,593 L 725,593 L 726,594 L 728,594 L 729,595 L 731,595 L 732,596 L 733,596 L 734,597 L 736,597 L 737,598 L 739,598 L 740,599 L 743,599 L 744,600 L 756,600 L 757,599 L 759,599 L 760,598 L 761,598 L 764,595 L 765,595 L 769,591 L 769,590 L 772,587 L 772,586 L 774,584 L 774,583 L 777,580 L 777,579 L 778,578 L 778,577 L 780,575 L 780,574 L 781,573 L 781,572 L 783,570 L 783,569 L 784,568 L 784,567 L 785,566 L 785,565 L 786,564 L 786,562 L 787,561 L 787,560 L 788,559 L 788,558 L 789,557 L 789,556 L 790,555 L 790,553 L 791,552 L 791,551 L 792,550 L 792,549 L 793,548 L 793,546 L 794,545 L 794,543 L 795,542 L 795,541 L 796,540 L 796,538 L 797,537 L 797,535 L 798,534 L 798,532 L 799,531 L 799,529 L 800,528 L 800,526 L 801,525 L 801,523 L 802,522 L 802,520 L 803,519 L 803,515 L 799,511 L 799,510 L 787,498 L 787,497 L 780,490 L 780,489 L 775,484 L 775,483 L 773,481 L 773,480 L 772,479 L 772,478 L 770,476 L 770,475 L 769,474 L 769,472 L 768,471 L 768,469 L 767,468 L 767,464 L 766,463 L 766,449 L 767,448 L 767,443 L 768,442 L 768,439 L 769,438 L 769,435 L 770,434 L 770,431 L 771,430 L 771,428 L 772,427 L 772,425 L 773,424 L 773,421 L 774,420 L 774,418 L 775,417 L 775,415 L 776,414 L 776,411 L 777,410 L 777,408 L 778,407 L 778,405 L 779,404 L 779,402 L 780,401 L 780,398 L 781,397 L 781,395 L 782,394 L 782,391 L 783,390 L 783,387 L 784,386 L 784,383 L 785,382 L 785,378 L 786,377 L 786,372 L 787,371 L 787,364 L 788,363 L 788,351 L 789,350 L 789,312 L 788,311 L 788,302 L 787,301 L 787,295 L 786,294 L 786,289 L 785,288 L 785,284 L 784,283 L 784,280 L 783,279 L 783,276 L 782,275 L 782,273 L 781,272 L 781,269 L 780,268 L 780,266 L 779,265 L 779,263 L 778,262 L 778,260 L 777,259 L 777,258 L 776,257 L 776,255 L 775,254 L 775,253 L 774,252 L 774,250 L 773,249 L 773,248 L 772,247 L 772,246 L 771,245 L 771,244 L 770,243 L 770,242 L 769,241 L 769,240 L 768,239 L 768,238 L 767,237 L 767,236 L 766,235 L 766,234 L 765,233 L 765,232 L 763,230 L 763,229 L 762,228 L 762,227 L 760,225 L 760,224 L 758,222 L 758,221 L 756,219 L 756,218 L 753,215 L 753,214 L 750,211 L 750,210 L 746,206 L 746,205 L 742,201 L 742,200 L 723,181 L 722,181 L 715,174 L 714,174 L 711,171 L 710,171 L 707,168 L 706,168 L 703,165 L 702,165 L 700,163 L 699,163 L 697,161 L 696,161 L 695,160 L 694,160 L 692,158 L 691,158 L 690,157 L 689,157 L 687,155 L 686,155 L 685,154 L 684,154 L 683,153 L 682,153 L 680,151 L 679,151 L 678,150 L 677,150 L 676,149 L 675,149 L 674,148 L 673,148 L 672,147 L 671,147 L 670,146 L 669,146 L 668,145 L 667,145 L 666,144 L 665,144 L 664,143 L 663,143 L 662,142 L 661,142 L 660,141 L 658,141 L 657,140 L 656,140 L 655,139 L 654,139 L 653,138 L 651,138 L 650,137 L 649,137 L 648,136 L 646,136 L 645,135 L 643,135 L 642,134 L 641,134 L 640,133 L 638,133 L 637,132 L 635,132 L 634,131 L 633,131 L 632,130 L 629,130 L 628,129 L 626,129 L 625,128 L 623,128 L 622,127 L 620,127 L 619,126 L 617,126 L 616,125 L 613,125 L 612,124 L 609,124 L 608,123 L 606,123 L 605,122 L 602,122 L 601,121 L 597,121 L 596,120 L 592,120 L 591,119 L 588,119 L 587,118 L 582,118 L 581,117 L 577,117 L 576,116 L 570,116 L 569,115 L 562,115 L 561,114 L 553,114 L 552,113 L 537,113 L 536,112 Z" fill="#00FF00" /></svg>